<mxfile host="app.diagrams.net" modified="2024-07-05T22:32:45.801Z" agent="Mozilla/5.0 (Macintosh; Intel Mac OS X 10.15; rv:127.0) Gecko/20100101 Firefox/127.0" version="24.6.4" etag="YgiXyMGTmNyoHfV6QNOq" type="github">
  <diagram name="Page-1" id="3sf-a_kbNnBAUmqeplsu">
    <mxGraphModel>
      <root>
        <mxCell id="0" />
        <mxCell id="1" parent="0" />
      </root>
    </mxGraphModel>
  </diagram>
</mxfile>
